<?xml version="1.0" encoding="UTF-8"?>
<!DOCTYPE svg PUBLIC "-//W3C//DTD SVG 1.1//EN" "http://www.w3.org/Graphics/SVG/1.1/DTD/svg11.dtd">
<!-- Creator: CorelDRAW X7 -->
<svg xmlns="http://www.w3.org/2000/svg" xml:space="preserve" width="4.45688in" height="3.32215in" version="1.1" style="shape-rendering:geometricPrecision; text-rendering:geometricPrecision; image-rendering:optimizeQuality; fill-rule:evenodd; clip-rule:evenodd"
viewBox="0 0 4456 3322"
 xmlns:xlink="http://www.w3.org/1999/xlink">
 <defs>
  <style type="text/css">
   <![CDATA[
    .fil1 {fill:#FEFEFE}
    .fil2 {fill:#F4EDC2}
    .fil0 {fill:#F0B532}
    .fil4 {fill:#F6CF2B;fill-rule:nonzero}
    .fil3 {fill:url(#id0);fill-rule:nonzero}
   ]]>
  </style>
  <linearGradient id="id0" gradientUnits="userSpaceOnUse" x1="1653.72" y1="1891.46" x2="2839.05" y2="1891.46">
   <stop offset="0" style="stop-opacity:1; stop-color:#FFF212"/>
   <stop offset="1" style="stop-opacity:1; stop-color:#E8A719"/>
  </linearGradient>
 </defs>
 <g id="Layer_x0020_1">
  <metadata id="CorelCorpID_0Corel-Layer"/>
  <g id="_242525440">
   <path class="fil0" d="M543 663l923 0 0 -12c0,-200 152,-363 337,-363l850 0c186,0 337,163 337,363l0 12 924 0c96,0 175,85 175,189l0 1993c0,104 -79,189 -175,189l-3371 0c-97,0 -176,-85 -176,-189l0 -1993c0,-104 79,-189 176,-189z"/>
   <circle class="fil1" cx="2228" cy="1814" r="940"/>
   <circle class="fil2" cx="2228" cy="1814" r="838"/>
   <path class="fil3" d="M1866 1548l4 815 54 0 0 1 159 -1 0 0 165 0 4 -944 -21 0 -173 0 0 0 -404 0 0 130 212 -1zm169 686l0 -687 48 0 0 687 -48 0zm799 -438c3,28 5,58 5,89 0,166 -47,290 -141,374 -79,70 -184,105 -315,105l-91 0 0 -127 88 0c99,0 173,-31 222,-95 46,-59 69,-144 69,-256 0,-32 -2,-62 -6,-90l169 0z"/>
   <rect class="fil1" x="3091" y="851" width="824" height="229" rx="106" ry="115"/>
   <g>
    <path class="fil4" d="M894 437l0 126 -627 0 0 -126 627 0zm839 -437l0 126 0 0 -17 0 -16 2 -16 2 -16 3 -16 4 -15 5 -15 5 -15 7 -14 7 -15 7 -13 9 -14 9 -13 10 -12 11 -12 11 -12 12 -11 12 -10 13 -10 14 -9 14 -9 15 -8 15 -8 16 -6 16 0 -1 -119 -41 2 -5 9 -21 10 -21 11 -20 11 -20 13 -19 13 -18 15 -18 14 -17 16 -16 17 -15 17 -15 18 -13 18 -13 19 -12 20 -11 20 -10 21 -9 21 -8 22 -6 22 -6 22 -4 23 -3 24 -2 23 -1 0 0zm781 0l0 126 -781 0 0 -126 781 0zm664 486l-126 0 0 0 0 -19 -2 -18 -2 -19 -3 -17 -4 -18 -4 -17 -5 -17 -6 -16 -7 -16 -8 -16 -4 -9 109 -62 7 14 10 21 9 21 8 22 7 23 6 23 5 23 4 24 3 24 2 24 1 25 0 0zm-126 14l0 -14 126 0 0 14 -63 63 -63 -63zm455 -63l0 126 -392 0 0 -126 392 0zm683 126l-56 0 0 -126 56 0 0 0 0 126zm266 157l-125 0 0 0 0 -9 -1 -8 -1 -8 -1 -8 -2 -7 -2 -8 -2 -7 -3 -8 -3 -7 -3 -7 -4 -6 -4 -7 -4 -6 -4 -6 -5 -5 -4 -6 -5 -5 -6 -5 -5 -5 -6 -4 -5 -4 -6 -3 -6 -4 -6 -3 -7 -2 -6 -3 -6 -2 -7 -1 -7 -2 -6 -1 -7 0 -7 0 0 -126 13 0 14 1 14 2 13 3 13 3 13 4 13 5 12 5 12 6 11 6 11 7 11 7 11 9 10 8 9 9 9 9 9 10 8 11 8 10 8 11 6 12 7 12 5 12 6 12 4 13 4 13 4 13 3 14 2 13 2 14 1 14 0 15 0 0zm0 869l-125 0 0 -869 125 0 0 869zm0 1258l-125 0 0 -629 125 0 0 629zm-1625 475l0 -126 1254 0 0 126 -1254 0zm-1254 0l0 -126 627 0 0 126 -627 0zm-1310 -126l683 0 0 126 -683 0 0 0 0 -126zm-267 -157l125 0 0 0 1 8 0 8 1 8 1 8 2 8 2 7 2 8 3 7 3 7 3 7 4 7 4 6 4 6 4 6 5 6 4 5 5 5 6 5 5 5 6 4 5 4 6 4 6 3 6 3 7 3 6 2 7 2 6 2 7 1 7 1 7 1 7 0 0 126 -14 -1 -14 -1 -14 -2 -13 -2 -13 -4 -13 -4 -12 -4 -13 -5 -12 -6 -11 -7 -11 -7 -11 -7 -11 -8 -10 -9 -9 -9 -9 -9 -9 -10 -8 -10 -8 -11 -7 -11 -7 -11 -7 -12 -5 -12 -6 -13 -4 -12 -4 -13 -4 -14 -3 -13 -2 -14 -2 -14 -1 -14 0 -14 0 0zm0 -239l125 0 0 239 -125 0 0 -239zm0 -1258l125 0 0 629 -125 0 0 -629zm125 -822l0 192 -125 0 0 -192 0 0 125 0zm142 -283l0 126 0 0 -7 0 -7 0 -7 1 -7 2 -6 1 -7 2 -6 3 -7 2 -6 3 -6 4 -6 3 -5 4 -6 4 -5 5 -6 5 -5 5 -4 6 -5 5 -4 6 -4 6 -4 7 -4 6 -3 7 -3 7 -3 8 -2 7 -2 8 -2 7 -1 8 -1 8 0 8 -1 9 -125 0 0 -15 1 -14 2 -14 2 -13 3 -14 4 -13 4 -13 4 -13 6 -12 5 -12 7 -12 7 -12 7 -11 8 -10 8 -11 9 -10 9 -9 9 -9 10 -8 11 -9 11 -7 11 -7 11 -6 12 -6 13 -5 12 -5 13 -4 13 -3 13 -3 14 -2 14 -1 14 0 0 0z"/>
   </g>
  </g>
 </g>
</svg>
